<svg width="127" height="124" viewBox="0 0 127 124" fill="none" xmlns="http://www.w3.org/2000/svg">
<rect x="14.5" y="11.5" width="99" height="99" rx="18.5" fill="white" fill-opacity="0.89" stroke="#C7C7C7"/>
<g filter="url(#filter0_d_153_7)">
<mask id="path-2-inside-1_153_7" fill="white">
<path fill-rule="evenodd" clip-rule="evenodd" d="M35 21C27.8203 21 22 26.8203 22 34V88C22 95.1797 27.8203 101 35 101H92C99.1797 101 105 95.1797 105 88V34C105 26.8203 99.1797 21 92 21H35ZM62.6957 51C57.8932 51 54 54.8932 54 59.6957V62.3043C54 67.1068 57.8932 71 62.6957 71H64C69.5228 71 74 66.5228 74 61C74 55.4772 69.5228 51 64 51H62.6957Z"/>
</mask>
<path fill-rule="evenodd" clip-rule="evenodd" d="M35 21C27.8203 21 22 26.8203 22 34V88C22 95.1797 27.8203 101 35 101H92C99.1797 101 105 95.1797 105 88V34C105 26.8203 99.1797 21 92 21H35ZM62.6957 51C57.8932 51 54 54.8932 54 59.6957V62.3043C54 67.1068 57.8932 71 62.6957 71H64C69.5228 71 74 66.5228 74 61C74 55.4772 69.5228 51 64 51H62.6957Z" fill="white"/>
<path d="M23 34C23 27.3726 28.3726 22 35 22V20C27.268 20 21 26.268 21 34H23ZM23 88V34H21V88H23ZM35 100C28.3726 100 23 94.6274 23 88H21C21 95.732 27.268 102 35 102V100ZM92 100H35V102H92V100ZM104 88C104 94.6274 98.6274 100 92 100V102C99.732 102 106 95.732 106 88H104ZM104 34V88H106V34H104ZM92 22C98.6274 22 104 27.3726 104 34H106C106 26.268 99.732 20 92 20V22ZM35 22H92V20H35V22ZM55 59.6957C55 55.4455 58.4455 52 62.6957 52V50C57.3409 50 53 54.3409 53 59.6957H55ZM55 62.3043V59.6957H53V62.3043H55ZM62.6957 70C58.4455 70 55 66.5545 55 62.3043H53C53 67.6591 57.3409 72 62.6957 72V70ZM64 70H62.6957V72H64V70ZM73 61C73 65.9706 68.9706 70 64 70V72C70.0751 72 75 67.0751 75 61H73ZM64 52C68.9706 52 73 56.0294 73 61H75C75 54.9249 70.0751 50 64 50V52ZM62.6957 52H64V50H62.6957V52Z" fill="#C7C7C7" mask="url(#path-2-inside-1_153_7)"/>
</g>
<defs>
<filter id="filter0_d_153_7" x="0.6" y="0.6" width="125.8" height="122.8" filterUnits="userSpaceOnUse" color-interpolation-filters="sRGB">
<feFlood flood-opacity="0" result="BackgroundImageFix"/>
<feColorMatrix in="SourceAlpha" type="matrix" values="0 0 0 0 0 0 0 0 0 0 0 0 0 0 0 0 0 0 127 0" result="hardAlpha"/>
<feOffset dy="1"/>
<feGaussianBlur stdDeviation="10.7"/>
<feComposite in2="hardAlpha" operator="out"/>
<feColorMatrix type="matrix" values="0 0 0 0 0 0 0 0 0 0 0 0 0 0 0 0 0 0 0.68 0"/>
<feBlend mode="normal" in2="BackgroundImageFix" result="effect1_dropShadow_153_7"/>
<feBlend mode="normal" in="SourceGraphic" in2="effect1_dropShadow_153_7" result="shape"/>
</filter>
</defs>
</svg>
